<svg xmlns="http://www.w3.org/2000/svg" xmlns:xlink="http://www.w3.org/1999/xlink" viewBox="0 0 595.28 841.89"><defs><path id="a" d="M183.175 212.89h308.341v331.92H183.175z"/></defs><clipPath id="b"><use xlink:href="#a" overflow="visible"/></clipPath><path d="M352.445 338.244H316.2v-36.283c0-3.333-2.721-6.046-6.053-6.046-3.34 0-6.054 2.713-6.054 6.046v36.283H267.81c-3.333 0-6.053 2.721-6.053 6.053 0 3.333 2.721 6.053 6.053 6.053h36.283v36.253c0 3.333 2.713 6.046 6.054 6.046 3.333 0 6.053-2.713 6.053-6.046V350.35h36.245a6.062 6.062 0 0 0 6.053-6.053 6.062 6.062 0 0 0-6.053-6.053zm0 0" clip-path="url(#b)"/><path d="M489.838 527.33l-89.834-93.439c22.914-22.997 37.114-54.67 37.114-89.593 0-70.027-56.983-126.971-126.971-126.971-70.027 0-126.971 56.945-126.971 126.971 0 69.996 56.945 126.972 126.971 126.972 30.728 0 58.925-11.011 80.917-29.224l90.038 93.666c1.179 1.239 2.774 1.829 4.368 1.829a6.097 6.097 0 0 0 4.195-1.678c2.387-2.306 2.478-6.145.173-8.533zM195.282 344.298c0-63.353 51.511-114.865 114.865-114.865 63.323 0 114.865 51.511 114.865 114.865 0 63.323-51.541 114.865-114.865 114.865-63.354-.001-114.865-51.542-114.865-114.865zm0 0" clip-path="url(#b)"/></svg>