<svg xmlns="http://www.w3.org/2000/svg" width="337.889" height="391.987" viewBox="127.995 225.901 337.889 391.987"><path fill="#FFF" d="M392.187 426.895c-5.6-5.6-14.699-5.6-20.399 0l-60.498 60.599V330.498c0-7.9-6.499-14.399-14.399-14.399-7.899 0-14.399 6.5-14.399 14.399v156.995l-60.598-60.599c-5.6-5.6-14.699-5.6-20.399 0-5.6 5.601-5.6 14.7 0 20.399l85.197 85.197c2.8 2.8 6.5 4.2 10.199 4.2 3.7 0 7.4-1.4 10.2-4.2l85.196-85.197c5.499-5.599 5.499-14.698-.1-20.398zM296.99 225.901c-7.9 0-14.399 6.5-14.399 14.399v33c0 7.9 6.499 14.399 14.399 14.399 7.899 0 14.399-6.5 14.399-14.399v-32.999c.001-7.9-6.499-14.4-14.399-14.4z"/><path fill="#FFF" d="M451.485 493.793c-7.899 0-14.399 6.499-14.399 14.399v80.897h-280.29v-80.897c0-7.9-6.5-14.399-14.399-14.399-7.9 0-14.4 6.499-14.4 14.399v95.297c0 7.899 6.5 14.399 14.4 14.399h308.989c8 0 14.499-6.5 14.499-14.399v-95.297c-.001-7.899-6.5-14.399-14.4-14.399z"/></svg>