<svg xmlns="http://www.w3.org/2000/svg" viewBox="0 0 595.3 841.9"><path d="M392.2 426.9c-5.6-5.6-14.7-5.6-20.4 0l-60.5 60.6v-157c0-7.9-6.5-14.4-14.4-14.4s-14.4 6.5-14.4 14.4v157l-60.6-60.6c-5.6-5.6-14.7-5.6-20.4 0-5.6 5.6-5.6 14.7 0 20.4l85.2 85.2c2.8 2.8 6.5 4.2 10.2 4.2 3.7 0 7.4-1.4 10.2-4.2l85.2-85.2c5.5-5.6 5.5-14.7-.1-20.4zm0 0M297 225.9c-7.9 0-14.4 6.5-14.4 14.4v33c0 7.9 6.5 14.4 14.4 14.4s14.4-6.5 14.4-14.4v-33c0-7.9-6.5-14.4-14.4-14.4zm0 0"/><path d="M451.5 493.8c-7.9 0-14.4 6.5-14.4 14.4v80.9H156.8v-80.9c0-7.9-6.5-14.4-14.4-14.4s-14.4 6.5-14.4 14.4v95.3c0 7.9 6.5 14.4 14.4 14.4h309c8 0 14.5-6.5 14.5-14.4v-95.3c0-7.9-6.5-14.4-14.4-14.4zm0 0"/></svg>