<svg xmlns="http://www.w3.org/2000/svg" width="595.279" height="595.279" viewBox="0 123.306 595.279 595.279"><g fill="#FFBA32"><path d="M470.458 492.06c-12.187-12.688-26.886-19.474-42.465-19.474-15.454 0-30.278 6.659-42.969 19.349l-39.701 39.575c-3.267-1.759-6.533-3.392-9.675-5.024-4.521-2.262-8.794-4.396-12.438-6.658-37.188-23.62-70.985-54.401-103.4-94.229-15.704-19.851-26.258-36.561-33.922-53.521 10.303-9.423 19.851-19.223 29.147-28.646 3.519-3.518 7.035-7.161 10.553-10.679 26.386-26.384 26.386-60.558 0-86.941l-34.299-34.299c-3.895-3.895-7.915-7.915-11.685-11.936-7.538-7.79-15.453-15.831-23.62-23.369-12.188-12.061-26.761-18.469-42.088-18.469-15.328 0-30.153 6.408-42.718 18.469l-.251.251-42.718 43.094C12.129 235.635 2.958 255.234.947 277.975c-3.015 36.687 7.79 70.86 16.082 93.224 20.356 54.901 50.76 105.784 96.116 160.311 55.028 65.709 121.239 117.599 196.874 154.158 28.896 13.694 67.468 29.902 110.562 32.666 2.64.126 5.402.251 7.915.251 29.022 0 53.396-10.428 72.493-31.158.126-.251.377-.377.503-.628 6.533-7.915 14.071-15.076 21.986-22.74 5.402-5.15 10.931-10.554 16.333-16.207 12.438-12.94 18.972-28.018 18.972-43.472 0-15.579-6.659-30.528-19.349-43.094l-68.976-69.226zm44.979 132.296c-.125 0-.125.126 0 0-4.899 5.276-9.925 10.052-15.327 15.327-8.167 7.79-16.459 15.956-24.248 25.129-12.688 13.567-27.641 19.977-47.24 19.977-1.885 0-3.895 0-5.778-.126-37.314-2.388-71.99-16.961-97.998-29.399-71.11-34.425-133.554-83.298-185.441-145.236-42.842-51.639-71.487-99.38-90.459-150.64-11.685-31.284-15.956-55.658-14.071-78.649 1.256-14.7 6.91-26.886 17.338-37.314l42.844-42.842c6.155-5.78 12.688-8.92 19.097-8.92 7.915 0 14.322 4.774 18.343 8.794l.377.377c7.664 7.162 14.951 14.574 22.615 22.489 3.895 4.021 7.915 8.041 11.936 12.187l34.3 34.299c13.317 13.318 13.317 25.63 0 38.948-3.645 3.644-7.161 7.287-10.806 10.805-10.554 10.805-20.604 20.856-31.535 30.656-.251.251-.502.377-.628.628-10.805 10.805-8.795 21.358-6.532 28.52l.377 1.13c8.92 21.61 21.483 41.963 40.581 66.212l.126.125c34.676 42.717 71.235 76.011 111.565 101.516 5.15 3.268 10.429 5.905 15.453 8.418 4.522 2.263 8.794 4.397 12.438 6.658.503.252 1.006.629 1.508.88 4.271 2.137 8.292 3.142 12.438 3.142 10.428 0 16.961-6.533 19.097-8.669l42.969-42.969c4.271-4.271 11.056-9.423 18.971-9.423 7.79 0 14.197 4.899 18.093 9.172l.252.251 69.227 69.228c12.934 12.81 12.934 26.002.118 39.319zM321.703 264.906c32.917 5.528 62.819 21.107 86.69 44.979 23.871 23.872 39.324 53.773 44.979 86.69 1.383 8.292 8.543 14.071 16.709 14.071 1.007 0 1.886-.127 2.891-.252 9.298-1.508 15.454-10.303 13.946-19.6-6.784-39.828-25.631-76.137-54.401-104.908-28.771-28.771-65.08-47.617-104.907-54.401-9.298-1.508-17.967 4.648-19.6 13.82-1.634 9.174 4.396 18.094 13.693 19.601zM594.59 385.896c-11.183-65.583-42.089-125.261-89.58-172.752-47.491-47.491-107.169-78.398-172.752-89.58-9.173-1.633-17.842 4.649-19.475 13.82-1.508 9.297 4.648 17.966 13.945 19.6 58.548 9.925 111.943 37.691 154.409 80.031 42.466 42.466 70.105 95.862 80.031 154.409 1.382 8.292 8.544 14.071 16.71 14.071 1.005 0 1.885-.125 2.89-.251 9.173-1.382 15.454-10.177 13.822-19.348z"/></g></svg>