<svg xmlns="http://www.w3.org/2000/svg" width="595.279" height="423.195" viewBox="0 209.338 595.279 423.195"><g fill="#FFBA32"><path d="M481.971 536.192a9.5 9.5 0 0 1-6.564-2.61l-110.45-103.615c-3.857-3.607-4.05-9.692-.422-13.552 3.628-3.896 9.675-4.069 13.57-.422l110.449 103.615c3.857 3.607 4.05 9.692.422 13.552a9.565 9.565 0 0 1-7.005 3.032zM113.29 536.192a9.612 9.612 0 0 1-7.007-3.032c-3.628-3.858-3.436-9.943.423-13.552l110.487-103.615c3.877-3.609 9.962-3.456 13.57.422 3.628 3.858 3.437 9.943-.423 13.552L119.855 533.582a9.505 9.505 0 0 1-6.565 2.61z"/><path d="M547.292 632.533H47.988C21.537 632.533 0 611.016 0 584.545V257.326c0-26.47 21.537-47.988 47.987-47.988h499.305c26.451 0 47.987 21.518 47.987 47.988v327.22c.001 26.47-21.536 47.987-47.987 47.987zm-499.304-404c-15.874 0-28.792 12.918-28.792 28.793v327.22c0 15.874 12.918 28.792 28.792 28.792h499.306c15.873 0 28.793-12.918 28.793-28.792v-327.22c0-15.875-12.92-28.793-28.793-28.793H47.988z"/><path d="M297.64 469.163c-12.766 0-25.529-4.242-35.242-12.707L15.932 241.451c-3.992-3.475-4.415-9.54-.94-13.552 3.513-3.993 9.561-4.357 13.552-.921L275.01 441.964c12.266 10.691 32.996 10.691 45.243 0L566.41 227.323c3.975-3.474 10.021-3.09 13.553.922 3.475 4.012 3.07 10.058-.922 13.552L332.883 456.438c-9.732 8.483-22.478 12.725-35.243 12.725z"/></g><path fill="none" d="M1.139 203.445h595v430h-595z"/></svg>