<svg xmlns="http://www.w3.org/2000/svg" width="593.98" height="595.282" viewBox="-70.7 269.304 593.98 595.282"><path fill="#FFF" d="M226.124 864.585c-25.846 0-51.854-3.396-77.487-10.266C71.879 833.751 7.721 784.521-32.012 715.701s-50.29-148.996-29.723-225.756c20.568-76.762 69.797-140.917 138.619-180.652l7.745 13.416-7.745-13.416c68.823-39.735 148.999-50.292 225.758-29.723 76.761 20.566 140.916 69.797 180.649 138.617 39.733 68.822 50.291 148.996 29.723 225.758-20.567 76.762-69.798 140.918-138.618 180.65-45.84 26.469-96.721 39.99-148.272 39.99zm-.917-564.285c-46.186 0-91.762 12.111-132.832 35.824-61.653 35.598-105.757 93.072-124.184 161.84S-40.78 638.558-5.184 700.212c35.598 61.656 93.072 105.758 161.84 124.184 68.769 18.424 140.594 8.971 202.246-26.629 61.655-35.596 105.758-93.07 124.185-161.838s8.97-140.594-26.63-202.25c-35.596-61.654-93.07-105.756-161.837-124.182-22.955-6.152-46.264-9.197-69.413-9.197z"/><path fill="#FFF" d="M160.888 709.861c-5.567 0-11.133-1.465-16.208-4.396-10.151-5.859-16.212-16.357-16.212-28.078V456.505c0-11.721 6.06-22.217 16.212-28.078 10.151-5.855 22.271-5.857 32.422.002l191.287 110.439c10.148 5.857 16.209 16.355 16.209 28.076s-6.06 22.217-16.208 28.078l-191.289 110.44c-5.075 2.93-10.644 4.399-16.213 4.399zm.018-254.819c-.209 0-.452.055-.734.219-.719.414-.719.975-.719 1.244v220.881c0 .271 0 .83.719 1.246.717.416 1.203.137 1.437 0l191.288-110.439c.232-.135.719-.414.719-1.246 0-.83-.483-1.111-.719-1.246L161.608 455.259a1.35 1.35 0 0 0-.702-.217zm235.383-4.455a15.464 15.464 0 0 1-12.262-6.008c-31.914-41.23-79.896-68.933-131.648-76.002-8.479-1.16-14.41-8.971-13.253-17.447 1.159-8.479 8.979-14.412 17.445-13.254 59.729 8.162 115.114 40.139 151.957 87.736 5.236 6.766 3.997 16.494-2.769 21.73a15.386 15.386 0 0 1-9.47 3.245z"/></svg>