<svg xmlns="http://www.w3.org/2000/svg" xmlns:xlink="http://www.w3.org/1999/xlink" width="308.341" height="320.743" viewBox="183.175 217.327 308.341 320.743"><defs><path id="a" d="M183.175 212.89h308.341v331.919H183.175z"/></defs><clipPath id="b"><use xlink:href="#a" overflow="visible"/></clipPath><path clip-path="url(#b)" fill="#FFC34D" d="M352.445 338.244H316.2v-36.283c0-3.333-2.721-6.046-6.053-6.046-3.34 0-6.054 2.713-6.054 6.046v36.283H267.81c-3.333 0-6.053 2.721-6.053 6.053 0 3.333 2.721 6.053 6.053 6.053h36.283v36.253c0 3.333 2.713 6.046 6.054 6.046 3.333 0 6.053-2.713 6.053-6.046V350.35h36.245a6.063 6.063 0 0 0 6.054-6.053 6.065 6.065 0 0 0-6.054-6.053z"/><g><defs><path id="c" d="M183.175 212.89h308.341v331.919H183.175z"/></defs><clipPath id="d"><use xlink:href="#c" overflow="visible"/></clipPath><path clip-path="url(#d)" fill="#FFC34D" d="M489.838 527.33l-89.834-93.439c22.914-22.997 37.113-54.669 37.113-89.593 0-70.027-56.982-126.971-126.971-126.971-70.026 0-126.971 56.945-126.971 126.971 0 69.996 56.945 126.972 126.971 126.972 30.729 0 58.925-11.011 80.917-29.224l90.038 93.666c1.179 1.239 2.774 1.829 4.368 1.829a6.099 6.099 0 0 0 4.195-1.678c2.388-2.306 2.479-6.145.174-8.533zM195.282 344.298c0-63.353 51.511-114.865 114.864-114.865 63.323 0 114.865 51.511 114.865 114.865 0 63.323-51.541 114.865-114.865 114.865-63.353-.001-114.864-51.542-114.864-114.865z"/></g></svg>