<svg xmlns="http://www.w3.org/2000/svg" width="595.279" height="584.457" viewBox="0 128.717 595.279 584.457"><path d="M530.34 215.303v-86.586H0V637.41h75.763v75.764H595.28V215.303h-64.94zM21.647 615.764v-465.4h487.047v64.939H75.763v400.461H21.647zm551.986 75.763H97.409V236.949h476.224v454.578z"/><path d="M427.357 372.403a10.81 10.81 0 0 0-15.304 0l-76.531 76.531-76.531-76.531a10.812 10.812 0 0 0-15.305 0 10.813 10.813 0 0 0 0 15.304l76.531 76.532-76.531 76.531a10.813 10.813 0 0 0 0 15.304c2.111 2.111 4.882 3.172 7.652 3.172s5.542-1.061 7.652-3.172l76.531-76.531 76.531 76.531a10.79 10.79 0 0 0 7.651 3.172c2.771 0 5.542-1.061 7.652-3.172a10.81 10.81 0 0 0 0-15.304l-76.531-76.531 76.531-76.531c4.234-4.233 4.234-11.084.002-15.305z"/></svg>