<svg xmlns="http://www.w3.org/2000/svg" viewBox="-49 141 512 512"><path d="M207.416 653c-22.229 0-44.6-2.922-66.646-8.83-66.02-17.69-121.202-60.033-155.377-119.225-34.175-59.192-43.254-128.152-25.564-194.173C-22.48 264.75 19.861 209.57 79.055 175.393l6.662 11.539-6.662-11.539c59.195-34.176 128.154-43.255 194.174-25.564 66.022 17.69 121.202 60.033 155.377 119.225 34.175 59.194 43.255 128.152 25.564 194.174-17.69 66.022-60.033 121.202-119.225 155.377C295.518 641.371 251.755 653 207.416 653zm-.788-485.34c-39.724 0-78.924 10.417-114.249 30.812-53.028 30.617-90.961 80.051-106.81 139.197-15.849 59.147-7.716 120.925 22.9 173.954 30.617 53.03 80.051 90.962 139.198 106.81 59.147 15.846 120.924 7.715 173.952-22.903 53.03-30.616 90.962-80.051 106.81-139.197 15.849-59.147 7.715-120.925-22.903-173.954-30.616-53.03-80.051-90.962-139.197-106.81-19.743-5.291-39.791-7.909-59.701-7.909z"/><path d="M151.307 519.921c-4.789 0-9.576-1.259-13.941-3.78-8.731-5.04-13.944-14.069-13.944-24.15v-189.98c0-10.081 5.212-19.109 13.944-24.15 8.731-5.038 19.155-5.039 27.886.001l164.526 94.99c8.73 5.039 13.942 14.068 13.942 24.147 0 10.081-5.211 19.109-13.941 24.151l-164.528 94.989c-4.365 2.52-9.154 3.782-13.944 3.782zm.015-219.169c-.18 0-.39.048-.633.188-.618.357-.618.839-.618 1.071v189.98c0 .232 0 .714.618 1.071.617.358 1.035.117 1.236 0l164.527-94.989c.2-.116.618-.357.618-1.073 0-.714-.417-.955-.618-1.071l-164.526-94.99c-.122-.07-.324-.187-.604-.187zM353.776 296.921c-3.981 0-7.92-1.776-10.546-5.168-27.449-35.461-68.72-59.288-113.232-65.369-7.291-.997-12.394-7.715-11.399-15.006.997-7.292 7.723-12.395 15.006-11.399 51.372 7.019 99.01 34.523 130.698 75.461 4.504 5.819 3.438 14.187-2.381 18.692a13.255 13.255 0 0 1-8.146 2.789z"/></svg>