<svg xmlns="http://www.w3.org/2000/svg" width="595.106" height="594.519" viewBox="-72 270.066 595.106 594.519"><path fill="#FFC34D" d="M226.124 864.585c-25.845 0-51.854-3.397-77.487-10.266C71.879 833.752 7.721 784.521-32.012 715.701c-39.734-68.82-50.29-148.997-29.723-225.757 20.568-76.761 69.797-140.916 138.619-180.652l7.745 13.416-7.745-13.416c68.823-39.735 148.999-50.291 225.758-29.722 76.761 20.567 140.916 69.797 180.649 138.617 39.734 68.822 50.291 148.997 29.723 225.758-20.567 76.761-69.798 140.917-138.618 180.65-45.84 26.469-96.721 39.99-148.272 39.99zm-.917-564.284c-46.185 0-91.761 12.111-132.832 35.824-61.653 35.597-105.757 93.072-124.183 161.839-18.427 68.768-8.971 140.594 26.625 202.248 35.597 61.656 93.072 105.758 161.84 124.184 68.768 18.424 140.593 8.97 202.246-26.628 61.655-35.596 105.758-93.072 124.184-161.839 18.427-68.768 8.97-140.594-26.629-202.249-35.596-61.655-93.071-105.757-161.838-124.183-22.955-6.152-46.264-9.196-69.413-9.196z"/><path fill="#FFC34D" d="M160.888 709.86c-5.567 0-11.133-1.464-16.208-4.396-10.151-5.859-16.212-16.357-16.212-28.078v-220.88c0-11.721 6.06-22.218 16.212-28.078 10.151-5.857 22.271-5.859 32.422.001l191.287 110.44c10.149 5.858 16.209 16.356 16.209 28.075 0 11.721-6.059 22.217-16.208 28.079l-191.289 110.44c-5.075 2.93-10.644 4.397-16.213 4.397zm.018-254.818c-.209 0-.453.056-.735.219-.719.415-.719.975-.719 1.245v220.881c0 .271 0 .83.719 1.245.717.417 1.203.137 1.437 0l191.288-110.439c.232-.135.719-.415.719-1.247 0-.83-.484-1.11-.719-1.245L161.608 455.259c-.142-.081-.376-.217-.702-.217zm235.384-4.454a15.466 15.466 0 0 1-12.262-6.009c-31.914-41.229-79.897-68.932-131.649-76.002-8.478-1.159-14.41-8.97-13.253-17.447 1.159-8.478 8.979-14.411 17.446-13.253 59.728 8.161 115.114 40.138 151.957 87.735 5.236 6.766 3.997 16.495-2.769 21.732a15.406 15.406 0 0 1-9.47 3.244z"/></svg>