<svg xmlns="http://www.w3.org/2000/svg" width="595.279" height="595.282" viewBox="0 123.304 595.279 595.282"><g fill="#FFBA32"><path d="M295.483 444.059H299.428c36.118-.615 65.334-13.313 86.906-37.598 47.46-53.5 39.569-145.215 38.707-153.967-3.082-65.704-34.146-97.139-59.787-111.808-19.106-10.972-41.419-16.889-66.319-17.382H296.84c-13.684 0-40.557 2.219-66.319 16.889-25.889 14.669-57.445 46.104-60.526 112.301-.863 8.752-8.753 100.466 38.707 153.967 21.447 24.284 50.663 36.981 86.781 37.598zm-92.577-188.483c0-.37.123-.74.123-.986 4.068-88.386 66.813-97.878 93.688-97.878h1.478c33.283.74 89.865 14.3 93.688 97.878 0 .37 0 .739.123.986.124.863 8.753 84.688-30.447 128.819-15.533 17.504-36.242 26.133-63.485 26.38h-1.232c-27.119-.247-47.952-8.876-63.361-26.38-39.081-43.885-30.699-128.08-30.575-128.819z"/><path d="M550.779 596.176v-.369c0-.985-.123-1.973-.123-3.082-.739-24.407-2.342-81.481-55.842-99.727-.37-.124-.863-.247-1.233-.37-55.596-14.177-101.821-46.228-102.314-46.597-7.521-5.301-17.874-3.452-23.175 4.066-5.302 7.52-3.452 17.875 4.066 23.177 2.097 1.479 51.158 35.625 112.548 51.403 28.723 10.231 31.928 40.927 32.79 69.032 0 1.109 0 2.096.123 3.082.124 11.094-.616 28.229-2.589 38.091-19.97 11.341-98.247 50.541-217.328 50.541-118.587 0-197.358-39.323-217.451-50.664-1.973-9.861-2.835-26.997-2.589-38.092 0-.985.123-1.972.123-3.081.863-28.105 4.068-58.801 32.791-69.033 61.389-15.777 110.451-50.048 112.547-51.403 7.521-5.302 9.368-15.655 4.068-23.176-5.301-7.52-15.656-9.367-23.176-4.067-.493.37-46.475 32.421-102.315 46.598-.493.123-.863.246-1.232.369-53.5 18.368-55.103 75.442-55.843 99.728 0 1.109 0 2.097-.123 3.081v.37c-.123 6.41-.246 39.324 6.287 55.844a15.81 15.81 0 0 0 6.41 7.766c3.698 2.466 92.33 58.924 240.627 58.924 148.296 0 236.929-56.582 240.626-58.924 2.836-1.849 5.179-4.563 6.41-7.766 6.164-16.397 6.041-49.311 5.917-55.721z"/></g></svg>