<svg xmlns="http://www.w3.org/2000/svg" viewBox="0 0 1000 704.225"><g fill="#fff"><path d="M205.594 523.287c-.923.462-2.768.923-5.134.923-5.479 0-9.604-3.46-9.604-9.834 0-6.085 4.124-10.209 10.151-10.209 2.423 0 3.951.52 4.614.865l-.605 2.048c-.952-.462-2.308-.808-3.922-.808-4.557 0-7.585 2.913-7.585 8.018 0 4.758 2.739 7.815 7.47 7.815 1.528 0 3.085-.317 4.095-.808l.52 1.99zM225.678 504.484v11.507c0 4.354 1.932 6.2 4.527 6.2 2.884 0 4.73-1.903 4.73-6.2v-11.507h2.538v11.334c0 5.97-3.143 8.421-7.354 8.421-3.98 0-6.979-2.278-6.979-8.306v-11.449h2.538zM256.26 504.484h2.51v17.332h8.306v2.105H256.26v-19.437zM285.456 506.618h-5.912v-2.134h14.392v2.134h-5.941v17.304h-2.538v-17.304zM313.039 504.484v11.507c0 4.354 1.932 6.2 4.527 6.2 2.884 0 4.729-1.903 4.729-6.2v-11.507h2.538v11.334c0 5.97-3.144 8.421-7.355 8.421-3.979 0-6.978-2.278-6.978-8.306v-11.449h2.539zM343.621 504.744c1.27-.26 3.086-.404 4.816-.404 2.683 0 4.412.49 5.624 1.586.98.865 1.528 2.192 1.528 3.691 0 2.567-1.615 4.268-3.663 4.961v.086c1.5.52 2.394 1.904 2.855 3.923.635 2.711 1.096 4.585 1.5 5.335h-2.596c-.317-.548-.75-2.221-1.298-4.644-.577-2.682-1.615-3.691-3.894-3.777h-2.364v8.421h-2.51v-19.178zm2.509 8.853h2.566c2.682 0 4.384-1.471 4.384-3.691 0-2.509-1.817-3.605-4.471-3.634-1.211 0-2.076.115-2.48.23v7.095zM383.633 514.808h-7.556v7.008h8.421v2.105h-10.931v-19.438h10.498v2.105h-7.988v6.143h7.556v2.077zM402.187 504.744a35.912 35.912 0 0 1 5.336-.404c3.604 0 6.171.837 7.873 2.423 1.73 1.586 2.739 3.836 2.739 6.979 0 3.173-.98 5.769-2.797 7.557-1.817 1.816-4.816 2.797-8.595 2.797-1.788 0-3.287-.086-4.557-.23v-19.122zm2.51 17.187c.634.115 1.557.145 2.537.145 5.364 0 8.277-2.999 8.277-8.248.028-4.585-2.566-7.498-7.873-7.498-1.298 0-2.278.115-2.941.26v15.341zM456.023 520.865c1.125.691 2.768 1.269 4.499 1.269 2.566 0 4.066-1.356 4.066-3.316 0-1.817-1.038-2.855-3.663-3.864-3.172-1.125-5.133-2.768-5.133-5.509 0-3.027 2.509-5.277 6.287-5.277 1.989 0 3.432.462 4.297.952l-.692 2.047a7.746 7.746 0 0 0-3.691-.923c-2.653 0-3.662 1.587-3.662 2.913 0 1.816 1.182 2.711 3.864 3.749 3.287 1.268 4.96 2.855 4.96 5.71 0 3-2.221 5.595-6.806 5.595-1.875 0-3.923-.548-4.961-1.24l.635-2.106zM488.71 506.618h-5.912v-2.134h14.392v2.134h-5.941v17.304h-2.538v-17.304zM529.615 514c0 6.69-4.066 10.238-9.026 10.238-5.133 0-8.738-3.979-8.738-9.863 0-6.172 3.836-10.209 9.026-10.209 5.306.001 8.738 4.067 8.738 9.834zm-15.082.318c0 4.153 2.249 7.873 6.2 7.873 3.98 0 6.229-3.662 6.229-8.075 0-3.864-2.018-7.901-6.2-7.901-4.153-.001-6.229 3.834-6.229 8.103zM547.307 523.921v-19.438h2.74l6.229 9.834c1.443 2.278 2.566 4.326 3.49 6.315l.057-.028c-.23-2.596-.287-4.96-.287-7.988v-8.133h2.365v19.438h-2.539l-6.171-9.863c-1.355-2.163-2.653-4.383-3.634-6.488l-.087.028c.145 2.451.202 4.788.202 8.018v8.306h-2.365zM590.78 514.808h-7.555v7.008h8.42v2.105h-10.93v-19.438h10.498v2.105h-7.988v6.143h7.555v2.077zM642.047 523.921a71.572 71.572 0 0 1-1.816-1.903c-1.672 1.558-3.547 2.221-5.682 2.221-3.777 0-5.969-2.538-5.969-5.451 0-2.652 1.586-4.47 3.807-5.681v-.087c-1.01-1.269-1.615-2.682-1.615-4.066 0-2.364 1.701-4.787 4.932-4.787 2.422 0 4.297 1.615 4.297 4.124 0 2.048-1.182 3.663-4.268 5.191v.086c1.643 1.903 3.488 4.038 4.729 5.422.895-1.355 1.5-3.229 1.875-5.682h2.307c-.52 3.058-1.355 5.479-2.797 7.182 1.037 1.096 2.047 2.191 3.201 3.432h-3.001zm-3.056-3.345c-1.152-1.269-3.316-3.634-5.479-6.113-1.039.663-2.51 1.903-2.51 3.951 0 2.22 1.645 3.922 3.98 3.922a5.435 5.435 0 0 0 4.009-1.76zm-5.912-11.853c0 1.385.635 2.451 1.471 3.489 1.961-1.124 3.231-2.163 3.231-3.807 0-1.183-.664-2.509-2.25-2.509-1.616.001-2.452 1.327-2.452 2.827zM682.299 504.744c1.096-.231 2.826-.404 4.586-.404 2.51 0 4.123.433 5.336 1.413 1.008.75 1.613 1.903 1.613 3.433 0 1.874-1.238 3.518-3.287 4.268v.058c1.846.462 4.01 1.99 4.01 4.874 0 1.673-.664 2.941-1.644 3.893-1.356 1.24-3.547 1.816-6.719 1.816-1.73 0-3.059-.115-3.895-.23v-19.121zm2.51 7.959h2.277c2.654 0 4.211-1.384 4.211-3.259 0-2.278-1.73-3.172-4.268-3.172-1.154 0-1.816.086-2.221.173v6.258zm0 9.315c.49.087 1.211.115 2.105.115 2.596 0 4.988-.951 4.988-3.778 0-2.652-2.277-3.749-5.018-3.749h-2.076v7.412zM712.362 504.744c1.27-.26 3.086-.404 4.816-.404 2.682 0 4.412.49 5.623 1.586.98.865 1.529 2.192 1.529 3.691 0 2.567-1.615 4.268-3.662 4.961v.086c1.498.52 2.393 1.904 2.854 3.923.635 2.711 1.098 4.585 1.5 5.335h-2.596c-.316-.548-.75-2.221-1.297-4.644-.576-2.682-1.615-3.691-3.893-3.777h-2.365v8.421h-2.51v-19.178zm2.51 8.853h2.566c2.682 0 4.383-1.471 4.383-3.691 0-2.509-1.816-3.605-4.469-3.634-1.213 0-2.076.115-2.48.23v7.095zM744.819 504.484v19.438h-2.51v-19.438h2.51zM777.214 523.287c-.924.462-2.77.923-5.133.923-5.48 0-9.604-3.46-9.604-9.834 0-6.085 4.123-10.209 10.15-10.209 2.422 0 3.951.52 4.615.865l-.607 2.048c-.951-.462-2.307-.808-3.922-.808-4.557 0-7.584 2.913-7.584 8.018 0 4.758 2.74 7.815 7.469 7.815 1.529 0 3.086-.317 4.096-.808l.52 1.99zM794.788 504.484h2.51v9.373h.086a49.425 49.425 0 0 1 1.529-2.077l5.939-7.296h3.115l-7.037 8.248 7.586 11.19h-2.971l-6.402-9.546-1.846 2.134v7.412h-2.51v-19.438z"/></g><g fill="#edb548"><path d="M111.127 454.949c0-4.78-1.791-8.689-5.373-11.723-3.583-3.034-9.821-5.716-18.716-8.047-9.62-2.415-16.905-5.555-21.855-9.419-4.951-3.863-7.427-9.075-7.427-15.637 0-6.722 2.768-12.195 8.302-16.422s12.648-6.339 21.343-6.339c9.056 0 16.361 2.516 21.916 7.547 5.554 5.031 8.25 11.169 8.09 18.414l-.182.362h-6.641c0-5.876-2.083-10.706-6.249-14.49-4.166-3.783-9.811-5.675-16.935-5.675-7.044 0-12.549 1.569-16.513 4.709-3.965 3.14-5.947 7.044-5.947 11.713 0 4.428 1.831 8.12 5.494 11.078 3.662 2.959 9.981 5.565 18.958 7.818 9.458 2.415 16.652 5.676 21.584 9.781 4.93 4.105 7.396 9.52 7.396 16.24 0 7.004-2.868 12.579-8.604 16.724-5.735 4.146-13.051 6.219-21.946 6.219-8.774 0-16.432-2.203-22.972-6.61-6.542-4.407-9.711-10.838-9.51-19.29l.121-.362h6.642c0 6.822 2.555 11.879 7.667 15.169 5.111 3.291 11.129 4.936 18.052 4.936 6.963 0 12.589-1.526 16.875-4.581 4.287-3.053 6.43-7.092 6.43-12.115zM195.936 394.789h-30.248v81.747h-7.244v-81.747h-30.248v-6.158h67.74v6.158zM274.587 439.767c0 11.351-3.109 20.527-9.328 27.531-6.219 7.004-14.561 10.505-25.025 10.505-10.304 0-18.525-3.501-24.663-10.505-6.139-7.004-9.207-16.181-9.207-27.531v-14.309c0-11.31 3.059-20.486 9.177-27.53 6.118-7.043 14.329-10.565 24.633-10.565 10.465 0 18.816 3.522 25.056 10.565 6.238 7.044 9.358 16.221 9.358 27.53v14.309zm-7.184-14.38c0-9.513-2.406-17.172-7.215-22.978-4.811-5.806-11.482-8.708-20.015-8.708-8.372 0-14.892 2.902-19.561 8.708-4.669 5.806-7.003 13.465-7.003 22.978v14.452c0 9.594 2.344 17.293 7.033 23.099 4.688 5.806 11.22 8.707 19.592 8.707 8.573 0 15.245-2.892 20.015-8.677 4.77-5.784 7.154-13.494 7.154-23.129v-14.452zM360.181 476.536h-7.185l-49.93-75.589-.362.06v75.528h-7.245V388.63h7.245l49.93 75.468.362-.06V388.63h7.185v87.906zM434.607 433.971h-42.323v36.406h48.481v6.158h-55.666V388.63h55.363v6.158h-48.179v33.024h42.323v6.159zM467.675 388.63l32.3 77.4h.362l32.421-77.4h9.539v87.905h-7.185v-38.821l.604-38.458-.362-.121-32.663 77.4h-5.011l-32.603-77.038-.362.061.664 38.156v38.821h-7.185V388.63h9.481zM615.514 452.024h-40.27l-9.057 24.512h-7.486l33.387-87.905h6.822l33.146 87.905h-7.486l-9.056-24.512zm-37.855-6.46h35.502l-17.51-47.575h-.361l-17.631 47.575zM654.38 436.809v39.727h-7.186v-87.845h29.766c9.418 0 16.643 2.063 21.674 6.189 5.031 4.126 7.547 10.153 7.547 18.082 0 4.67-1.348 8.845-4.045 12.527-2.697 3.683-6.5 6.37-11.41 8.061 5.434 1.368 9.348 3.814 11.742 7.335 2.394 3.522 3.592 7.939 3.592 13.252v8.272c0 2.738.322 5.192.967 7.366.643 2.173 1.711 3.945 3.199 5.313v1.449h-7.365c-1.49-1.449-2.535-3.481-3.139-6.098a36.118 36.118 0 0 1-.906-8.15v-8.03c0-5.393-1.742-9.649-5.223-12.77-3.482-3.118-8.342-4.679-14.58-4.679H654.38zm0-6.158h21.674c7.93 0 13.725-1.6 17.389-4.8 3.662-3.199 5.494-7.517 5.494-12.95 0-5.796-1.822-10.253-5.465-13.373-3.643-3.118-9.146-4.679-16.512-4.679h-22.58v35.802zM749.876 435.24h-12.074v41.296h-7.186V388.63h7.186v40.451h12.014l34.596-40.451h8.15l.119.302-36.344 42.954 38.941 44.348-.121.302h-8.574l-36.707-41.296zM860.948 433.971h-42.322v36.406h48.48v6.158H811.44V388.63h55.363v6.158h-48.178v33.024h42.322v6.159zM944.669 394.789H914.42v81.747h-7.244v-81.747h-30.248v-6.158h67.74v6.158z"/><g><path d="M426.831 281.538v43.539h5.521v-66.768a232.528 232.528 0 0 0-5.521-1.158v24.387zM497.785 305.401c-.764-1.084-1.553-2.206-2.367-3.359l-2.129-3.017-.378-.535-2.232-3.158-.488-.69-1.957-2.765-.624-.881a38.707 38.707 0 0 1-1.879 7.483l18.978 26.512h6.381l-5.205-7.748c-2.018-3.087-4.716-7.035-8.1-11.842zM445.638 232.524c-.736-1.026-1.461-2.035-2.153-2.996l-.059-.082a1202.493 1202.493 0 0 0-4.516-6.226c-.704-.963-1.377-1.88-2.018-2.75a773.49 773.49 0 0 1-4.556-6.261h-5.504v25.085c1.823.455 3.663.904 5.521 1.347v-17.055l14.652 20.557c2.702.693 5.382 1.409 8.007 2.153.241.068.467.154.705.225l-2.922-4.041-.951-1.318-1.843-2.56-.927-1.289c-.874-1.216-1.734-2.416-2.567-3.579l-.468-.652-.401-.558zM568.799 184.171h-5.191l-64.784 91.05-59.929-83.279a56.769 56.769 0 0 0-5.926-.449c-.321.013-.638.013-.96.03l95.753 133.466h6.771a41.3 41.3 0 0 0-1.072-1.669c-1.365-2.017-6.447-9.311-8.464-12.221a257.645 257.645 0 0 0-6.765-9.259 475.205 475.205 0 0 1-7.033-9.437 1456.436 1456.436 0 0 0-5.787-7.923c-1.663-2.253-2.731-3.798-3.204-4.629l61.427-85.999v131.225h5.158v-2.642c0-.01.006-.019.006-.029V184.171z"/><path d="M467.962 258.335c-4.266-2.673-9.123-4.783-14.57-6.329a330.388 330.388 0 0 0-16.792-4.279 527.852 527.852 0 0 1-16.794-4.101c-5.45-1.424-10.307-3.296-14.572-5.615-4.264-2.317-7.7-5.289-10.307-8.913-2.607-3.625-3.909-8.291-3.909-13.997 0-5.229 1.275-9.715 3.828-13.459 2.552-3.744 5.815-6.805 9.794-9.181 3.974-2.376 8.337-4.131 13.086-5.261 4.747-1.129 9.376-1.694 13.889-1.694 6.41 0 12.641.952 18.695 2.849 6.054 1.901 11.751 4.451 17.094 7.656.356.239.859.565 1.513.98.652.417 1.363.889 2.137 1.424.419.29.816.549 1.2.786l3.331-4.751c-2.363-2.066-5.228-3.852-8.537-5.561-3.681-1.898-7.629-3.511-11.84-4.841a91.117 91.117 0 0 0-12.643-3.027c-4.215-.69-7.984-1.035-11.306-1.035-5.225 0-10.536.743-15.936 2.226-5.402 1.485-10.327 3.68-14.778 6.587-4.451 2.911-8.072 6.588-10.86 11.04-2.791 4.451-4.185 9.704-4.185 15.758 0 4.512.801 8.576 2.404 12.196 1.603 3.622 3.767 6.797 6.499 9.526 2.73 2.733 5.903 5.016 9.526 6.855a59.272 59.272 0 0 0 11.306 4.363c3.205.832 6.971 1.664 11.306 2.492 4.331.832 8.752 1.811 13.264 2.939a159.773 159.773 0 0 1 13.444 4.005c4.451 1.544 8.396 3.472 11.84 5.787 3.441 2.314 6.232 5.105 8.369 8.368 2.136 3.266 3.205 7.154 3.205 11.663 0 5.58-1.219 10.447-3.65 14.6-2.434 4.157-5.639 7.629-9.615 10.417-3.979 2.789-8.43 4.869-13.354 6.231a55.729 55.729 0 0 1-11.756 1.941v4.535c0 .328-.017.651-.051.968a62.044 62.044 0 0 0 13.464-2.283c5.628-1.603 10.723-3.982 15.285-7.131 4.563-3.149 8.235-7.133 11.02-11.945 2.782-4.814 4.176-10.429 4.176-16.849 0-6.416-1.306-11.676-3.912-15.776-2.608-4.101-6.043-7.488-10.308-10.164zM389.227 299.465l-3.713 4.434a82.552 82.552 0 0 0 20.6 12.832 70.134 70.134 0 0 0 14.783 4.563v-5.666c-4.348-.934-8.464-2.314-12.34-4.149-6.634-3.143-13.075-7.154-19.33-12.014z"/></g></g></svg>