<svg xmlns="http://www.w3.org/2000/svg" width="438.856" height="512" viewBox="36.572 0 438.856 512"><path d="M231.25 359.25a9.132 9.132 0 0 0 0 12.928c1.783 1.783 4.123 2.68 6.464 2.68s4.682-.896 6.464-2.68l109.705-109.705a9.03 9.03 0 0 0 1.984-2.98 9.156 9.156 0 0 0 0-6.985 9.37 9.37 0 0 0-1.984-2.99L244.178 139.822c-3.574-3.575-9.353-3.575-12.928 0s-3.575 9.353 0 12.928l94.107 94.107H45.714A9.134 9.134 0 0 0 36.571 256a9.134 9.134 0 0 0 9.143 9.143h279.644L231.25 359.25z"/><path d="M466.285 0H128a9.135 9.135 0 0 0-9.144 9.143v192a9.135 9.135 0 0 0 9.144 9.143 9.135 9.135 0 0 0 9.143-9.143V18.286h320v475.428h-320V310.857a9.134 9.134 0 0 0-9.143-9.143 9.134 9.134 0 0 0-9.144 9.143v192A9.135 9.135 0 0 0 128 512h338.285a9.135 9.135 0 0 0 9.143-9.143V9.143A9.135 9.135 0 0 0 466.285 0z"/></svg>