<svg xmlns="http://www.w3.org/2000/svg" width="443.938" height="595.28" viewBox="75.671 123.305 443.938 595.28"><path d="M203.677 408.969a10.079 10.079 0 0 0-14.267 0 10.079 10.079 0 0 0 0 14.267L290.093 523.92a9.976 9.976 0 0 0 7.123 2.966c.071 0 .142-.04.212-.04.071 0 .132.04.212.04 3.36 0 6.186-1.745 8.021-4.268l99.795-99.796a10.078 10.078 0 0 0 0-14.266 10.079 10.079 0 0 0-14.267 0l-83.46 83.46V133.395c0-5.58-4.51-10.09-10.09-10.09a10.08 10.08 0 0 0-10.089 10.09v359.469l-83.873-83.895z"/><path d="M368.267 284.737a10.08 10.08 0 0 0-10.09 10.089c0 5.58 4.51 10.09 10.09 10.09H499.43v393.49H95.85v-393.49h131.164a10.08 10.08 0 0 0 10.089-10.09 10.08 10.08 0 0 0-10.089-10.089H75.671v433.848h443.938V284.737H368.267z"/></svg>